<svg xmlns="http://www.w3.org/2000/svg" viewBox="0 0 400 400">
  <g fill-rule="evenodd">
    <path fill="#18232c" d="M34.8 1.3c-1.6 2-8 7.6-11.6 10C12 18.7 7.2 18 2.4 8.9l-2-3.7C.1 4.8 0 12.6 0 29.5 0 58-.4 55.7 3.5 50.4 19.2 29.2 41 12.7 61 7.2c6.6-1.9 6.6-1.9 10.3-3.2 12-4.3 44.2-4.2 55.3 0a98 98 0 0 0 7.7 2.6c17.5 5.2 33 14.8 54.7 33.9 13.3 11.7 13.5 18.5 1 28-2.2 1.6-6.6 5.3-9.9 8.3-23.7 21.5-23.3 21.4-33.7 9.2A49.3 49.3 0 0 0 131 73.7c-8-4.7-11-5.7-22.6-7.8-4.9-.8-23.7-.7-28 .2C62.8 70 48.4 79.5 42.6 91c-8.8 17.8-10.1 32.9-4.2 48 6.8 17.3 5.1 26-6.1 31.6-10 5-19.8 5.2-29.4.8-1.2-.6-2.4-1-2.5-1-.2 0-.4 8.6-.4 19.7v19.7l3.5-.1c1.9-.1 6.4.2 10 .5 8.4 1 26.5 1 32.1.3 25.7-3.6 34.9-6.8 53.2-18.8 8-5.2 23.5-13.3 27.5-14.3 7.3-1.9 11.8.9 14 8.6l3 11c6.5 23 11.3 29.8 31.2 44 11 7.7 21 10 35.4 7.7 18.7-3 33.8-18.9 34.4-36.3.4-10-1.2-14.6-9.2-26.2-9.3-13.6-10.4-17-8.5-26a32.2 32.2 0 0 1 49.6-18.8 34.6 34.6 0 0 1 16.2 26.9 32 32 0 0 0 2.2 10.8 42.5 42.5 0 0 1 3 21 89.3 89.3 0 0 1-31.2 59.6 116.2 116.2 0 0 1-56.5 29.9 72.4 72.4 0 0 1-54.9-5.4c-18.4-9-21.2-13.2-16.3-24.7 7.3-16.8 5.8-30-4.6-40.2-16.2-16-38.6-12.9-59.8 8.3-7 7-9 10.2-13.4 20.6-7 17-8.2 23-6.7 37 2 20.3-4.6 22.6-18.3 6.3-2-2.4-15-14.3-18.3-16.8-2.7-2-5-3.2-10-5.3-2.5-1-4.9-2-5.3-2.4-2.3-1.6-2.3-1.5-2.3 9.3v9.9l1.1.5c.6.3 2 1 3.3 1.3 7.1 2.6 29.2 20.4 38.6 31.2 3.5 4 6.4 6.5 12.7 10.8 11.8 8 17.5 14 27.4 28.7 1 1.4 3.1 4.3 4.9 6.4 12.4 15.7 13.3 21.9 4.3 31.2l-3.6 3.7h50.7l-2-1.7c-5-4-14-13.8-17.7-18.9a927.6 927.6 0 0 0-21.5-29.2 118 118 0 0 1-24.6-62.6 99.5 99.5 0 0 1 6.9-41.8c9-18 28.5-25.1 40-14.6 5.6 5 6.2 11.2 2 21.2-7.1 17.2-1 37.6 13.6 44.8 3.6 1.8 9.4 3.3 28.9 7.6 23 5 29.4 5 47.8-.4l12.6-3.6a122 122 0 0 0 64.7-44c6.4-8.2 6.7-8.7 9.2-14l4.9-10a109 109 0 0 0 11.4-51.7c-1.5-16.5-11.3-39.6-21-49.3-10.4-10.5-36.8-15-52.2-9C231.9 127 221.8 134 219 139a60.9 60.9 0 0 0-4.9 45.9c8.8 23 9 23.5 7.7 29.3-2.7 12.9-11.3 19.8-22.7 18.3-18.5-2.3-33-16.5-39.3-38.2-4.4-15.4-4.5-20.3-.6-45.2A104.7 104.7 0 0 1 194 83.8c7-6.1 26.4-17 36.3-20.4 20.3-6.8 53.3-6.8 70.7.2C327.5 74 348.6 90 355.8 105l6.3 13.2a156.5 156.5 0 0 1 15.5 53.2c1.4 14.4-.8 29.1-7 47.4l-3.8 11.8a115.7 115.7 0 0 1-14 28.8 245 245 0 0 0-5.8 9.6 91.3 91.3 0 0 1-34 35 125 125 0 0 0-16 12.2 327 327 0 0 0-18.1 15c-11.1 9.7-19.3 14-38.5 20a96.5 96.5 0 0 1-57.2 1.2l-11-2.8c-2.9-.7-7.4-2-10.2-2.9-12.4-4-15.6-4.3-15.6-1.2 0 2.4 4 5.2 13 9.1 2.4 1 6.1 2.8 8.2 3.8a94 94 0 0 0 18.5 6.6l11.3 3.4c9.1 3 17.8 3.9 28.4 3.2 6.8-.4 7-.5 13.3-1.6 9.8-1.8 13.3-.1 14.3 6.9.5 3.4-1.8 16-3.8 21l-.8 2.1h19.5l.2-5.7c.7-17.2 11.3-40.3 25.7-56.1 13.4-14.7 12.7-14 21.6-19.6a80.4 80.4 0 0 1 17.4-8.5l7.8-2.9a90.9 90.9 0 0 1 58.3-1.8c.6.3.7-.5.7-8.9v-9.2l-6.9-.2c-18.5-.6-26.4-1.7-28.4-3.8-3.2-3.5-2.7-7.2 2-14.7 2.8-4.6 3.7-6.3 7.8-15.4 4-8.9 4-8.9 6.1-16 4.3-14.8 5.7-18 9.2-22.1 3.4-4.1 3.3-3.4 2.6-14.1a274 274 0 0 1 .7-36.2 8 8 0 0 1 5.3-5.6l1.6-.5V140l-2.5-.2c-7.1-.7-10.7-4.3-15.3-15-3.4-8-3.8-8.7-8.2-15.1-7.7-11-8.9-15.4-5.2-19.6 4.5-5 19.8-5.7 30.5-1.2.7.3.7-.2.7-7.2v-7.5l-9.5.2a51 51 0 0 0-19.9 3c-9 3-14.6 2.1-23-3.7a210.1 210.1 0 0 0-37.2-22.1c-12.8-6.1-13.5-11-3.2-23 5-6 6.5-8 9.2-12.5 5.7-9.8 10-10.8 19.8-4.8a150.2 150.2 0 0 1 33.5 25.8A74 74 0 0 0 399 57.4l1 .3-.2-10c0-8.4-.2-9.8-.7-10-12.6-1.8-21.6-18.7-19-35.6l.2-2.1h-10.2c-10 0-10.2 0-10.4.8-1 3-9 3-10-.1C349.6 0 348 0 327 0h-22.5l-.5 3.1c-1.4 8.8-14.4 26-24.1 31.7-4.5 2.7-9.4 4-24.8 6.4a146.6 146.6 0 0 0-25.1 5.3c-11 3.5-13.3 3.2-18.7-3.4a143 143 0 0 0-27.5-24.8l-7.6-5.3a81.9 81.9 0 0 1-12-11.8l-.8-1.2H35.8l-1 1.3M202.2.8A61 61 0 0 0 216.9 6c4.2.7 14.9.3 17.9-.6 2.5-.8 11.2-4.5 11.8-5 .2-.3-8.6-.4-22.8-.4-22.8 0-23.2 0-21.6.8m-101 77c15 3.2 24.3 11.8 19.4 18a47 47 0 0 1-7 5.4 41.6 41.6 0 0 0-16.8 17.4A174 174 0 0 0 85.4 146c-9.8 31.7-10.8 34.3-14.1 38-6.6 7.3-20.9 13.5-26.3 11.4-4.8-1.8-4-5.9 3.1-15.1 13-16.8 13.9-26.4 4.5-46.6-7.8-17-5.9-28.5 7.3-43a44.3 44.3 0 0 1 41.3-13m31.5 27.7c3.4 1.7 5.9 6.1 8.8 15.7 3 10.1-1.2 29.4-8.9 39.7-5.7 7.8-23.8 19.8-29.8 19.8-6.8 0-8.2-4.5-5.2-16.4l3.5-15a79.1 79.1 0 0 1 20.3-39.8c5.2-5.3 7.2-6 11.3-4M0 325.8v11.7l1.2 1.3c1.1 1.2 2.8 5 2.8 6.3 0 1.1-2.7 6.5-3.4 6.8-.5.2-.6 2.4-.6 18.3v18.2l1.5.6c13.1 5.7 19.6 6.8 24.7 4.3 11.1-5.4 12.1-19.8 1.2-17-8 2-9.4-2.5-3-9.3 12.7-13.4 4.9-38.8-15-48.7L.2 314c-.1 0-.2 5.3-.2 11.8M369 368c-22.4 2.1-37.3 11.9-43.2 28.2l-1.3 3.8h10.3c9.3 0 10.4 0 10.4-.6 0-1 3.3-5.5 5.5-7.4 8-7.2 27.5-8.5 37.9-2.6 3.8 2.2 9 6.9 10 9 1.3 2.9 1.4 1.8 1.4-13.3v-15l-3.3-.3c-1.8-.1-5.2-.6-7.7-1a89 89 0 0 0-20-.8"/>
    <path fill="#eeae4b" d="M7.4 2.3c3.1 7 6.3 7.3 14.2 1a10 10 0 0 1 2.6-1.7l1.3-.8 1-.8h-20l1 2.3M172 .7l4.3 3.6c1.9 1.6 5.6 4.5 8.2 6.4A173.3 173.3 0 0 1 216 36.6c3.6 4.3 5 4.5 12.3 2.2 5.5-1.8 8.7-2.5 19.9-4.6 26.5-5 28.5-6 40.6-20A52.4 52.4 0 0 0 297.6.3c0-.2-6.8-.3-15.2-.3h-15.2v2.1l-.4 1c-.3.3-.3.5 0 .7.3.2 0 .7-.8 1.6a50.2 50.2 0 0 1-11 11.1 73.6 73.6 0 0 1-21.6 7.4 40.2 40.2 0 0 1-37.4-11c-5.1-5.2-3.4-5.8 7-2.3 16.6 5.6 32.7 5 45.8-1.8 8-4.2 12.2-8.8 8-8.8-1.3 0-1.9.3-3.4 1.8-13 12.7-39 14.6-54.6 4-4-2.7-6-4.4-6.2-5-.2-.8-1-.8-11-.8S171 0 172 .7m213 .6.8 6.1c1.2 9.9 4.2 17 8.7 20.8a25 25 0 0 0 5.2 3.8c.1 0 .3-7.2.3-16V0h-15.3l.3 1.3M96.6 6.6a122.1 122.1 0 0 0-34.4 6.6 103.5 103.5 0 0 0-50.3 36.2c-3 3.7-6.2 7.5-7.1 8.4C2 60.3-.1 63.1 0 64c0 .5.4.2 1.4-1.1.7-1 2.3-2.8 3.5-4a92 92 0 0 0 6.5-7.7 98.2 98.2 0 0 1 53-37.2 83.5 83.5 0 0 1 33-5.8c14-.2 20.4.8 39.1 6.5a116.4 116.4 0 0 1 45.7 30c8 8 9.4 10.5 7.4 13.1-2.3 3-6 2.3-11.2-2A170.5 170.5 0 0 0 141 33.5a476 476 0 0 0-16.8-6 47 47 0 0 0-19.1-2.2c-1 .3-2.5 1.6-5 4.3-5.5 6-8.9 7.4-17.5 7.4-5.5 0-8-.5-11.9-2.7-6.5-3.7-7.7-3.5-14.7 3.1a57.2 57.2 0 0 1-16.6 11c-6.9 3-10 5-13.8 9.2l-7.3 8A54 54 0 0 0 8.2 80.2l-3.8 6a38.9 38.9 0 0 0-3.8 6.3c-.3.2-.4 10.2-.5 35.9L0 164l1.7.4c13.4 3.7 19 3.6 26.9-.2 7.8-3.7 8.8-9.3 4.2-22-6.8-18.3-5.3-35.7 4.6-55.4 6.4-12.7 26.4-25 44-27.2 20-2.4 39.4.7 52.5 8.4a64 64 0 0 1 15.9 12c8.4 8.2 7.6 8.4 22.6-4.8 4.9-4.3 11-9.4 13.5-11.4 8.5-6.6 8.6-9 .7-16.8a138.5 138.5 0 0 0-70.2-39.4 94.4 94.4 0 0 0-19.8-1m228.8 9.7c-1.7 1.1-2.6 2.2-5.2 6.6a83.3 83.3 0 0 1-6.7 9c-7 8.2-7 10.2.2 13.6a171 171 0 0 1 18.1 9.3c21 13.9 24.3 15 36 13.4l11.6-1.4c12-1.1 12.3-3.8 1-11.4A105 105 0 0 1 363.3 40a106.3 106.3 0 0 0-22.7-18c-10.4-6.5-12.6-7.3-15.1-5.7m14.2 9.3c9.7 3.7 27.6 20 27.6 25.3 0 1.3 0 1.3-2 .5a60.2 60.2 0 0 1-20-13.7c-10.7-9.9-13-14.9-5.6-12m-85.9 38.7c-25 2.4-51 16-66.8 35a110.8 110.8 0 0 0-21.7 49.2c-4.3 28.7-2.1 45.2 8 60 10.4 15.1 30.9 21.7 37.9 12.2 5.2-7.2 5.1-13.9-.4-27.1a64.4 64.4 0 0 1 3.4-59c2.7-4.6 8.8-9.5 18.4-14.6 22.2-12 59.5-5.7 70.8 12 19.3 30.1 23.3 53.8 14.1 83.3a96.3 96.3 0 0 1-8.4 21.2c-1.6 3-3.5 7-4.2 8.8a46 46 0 0 1-9.3 14.1c-14 17.4-26.2 28.4-38.4 34.6a166.3 166.3 0 0 1-31.8 13c-3 .7-8 2.1-10.9 3a90.7 90.7 0 0 1-52.8.1l-11.2-2.6c-18.6-3.9-26.2-8.8-32.6-21.1a47.2 47.2 0 0 1-.5-36.8c5.2-12-2.9-20.5-15.5-16.3-14.3 4.8-21.5 21-21.5 48.8 0 19.6 8.6 44.5 20.2 58.2a362.2 362.2 0 0 1 21.4 29.2 74.9 74.9 0 0 0 16.3 19c4.2 3.8 6.5 6 9.3 9.1l2.1 2.3h94.6v-2.5l1.1-8c2.3-13.3 1.8-13.6-17-11.7-11 1.1-24.4-.6-36.4-4.8-1.6-.6-5.5-1.7-8.8-2.6a138 138 0 0 1-19.8-6.8c-2-1-6.6-2.8-10.2-4.3-13.5-5.3-19.5-10.9-20-18.5-.4-9 4.5-9.4 27-2.2 15.5 5 23.1 6.9 34.8 8.8a105.1 105.1 0 0 0 51.6-7.3 86.3 86.3 0 0 0 24-13.5l10-7.5a240 240 0 0 0 18.6-14c2.3-1.9 6-4.8 8.4-6.4 17.4-11.8 23.4-17.5 31.6-30.3l7.7-11.8c6-9.4 10-17.7 13.3-27.9 1.5-4.4 4-11.8 5.4-16.4 4.4-13 5-16.9 5-32.9 0-17-1-23-5.8-38.1a209.3 209.3 0 0 0-14.9-34.4c-4-8.2-16-19.8-27.4-26.3a403.4 403.4 0 0 0-25.1-12 127 127 0 0 0-43.7-4.2m20.9 1.2a84.2 84.2 0 0 1 33.2 9.2c16.4 6.9 19.7 9 31.7 20a38 38 0 0 1 11.3 15.4l5.6 12.2a113 113 0 0 1 10 36.7c-.2 4.6-1.3 6.5-2.8 4.8a19 19 0 0 1-2.8-5.2l-.8-2-2.2-5.7a105.8 105.8 0 0 0-23.8-39.6c-8.6-9.6-11.3-11.8-17.3-14.2-5-2-8.8-4.2-14-8a43.4 43.4 0 0 0-5.8-3.7c-12.3-5.8-41-7.3-55.4-2.9-10.6 3.3-33.3 17.7-38 24.2-.3.4-3 3.6-6.2 7a88 88 0 0 0-16.8 25.6c-6 16-8.8 21.2-11.2 20.4-3.2-1.2-3.1-13.6.1-26.2 1-4 7.6-17.8 11.8-24.7 4.1-7 15-18.8 21-23 4.5-3.3 18.2-11.2 23.5-13.6 11.8-5.4 32.3-8.2 48.9-6.7M87 85.5c-9.3 1.2-18 6.4-24.7 14.9-7.6 9.5-8 18-1.5 31.6a63.4 63.4 0 0 1 7.2 29.3c0 3.3.3 3.8 1.3 2 1-2 4-9.8 5.3-13.9 3.6-12 5.6-17.1 10.5-27.2 7.3-15.3 8.6-17 17.3-23.6 7.6-5.8 8.4-7 6.1-9.2-3.4-3.4-12.8-5-21.5-4M378.4 93c-5.8 1.9-5.4 5.2 1.8 14.8a91 91 0 0 1 8.5 13.4 28 28 0 0 0 4.6 8.2 13 13 0 0 0 5.7 3.8l1 .4v-23.9l-2.1-.4a47 47 0 0 0-4.5-.7c-7-.7-8.4-1-11.8-3.6-10-7.4-6-13.5 7.4-11 4 .8 7.7 1 10 .5 2-.4.8-.8-3.3-1l-6.7-.7c-3.4-.6-8.5-.4-10.6.2m-251.8 23c-7.2 4.3-15.7 22-19.4 40-2.8 13.9-2.4 14.6 5.8 10.5 12.7-6.4 17.8-13.4 20.8-28.3 2.8-13.9-1.1-26-7.2-22.3m119.2 34.5c-6 1-11 8.4-10.5 15.6.3 4.3.8 5.5 4.2 10.5 11.5 16.9 12.6 19.8 12.6 32.5 0 14.3-4.8 25.7-14.8 35a176.8 176.8 0 0 1-16.5 13.6l-4.4 2.3c-1.9.9-3.7 2-4.2 2.4-.4.5-1 .9-1.5.9-.4 0-.7.2-.7.4s-.3.4-.7.4c-.8 0-2.1 1.2-2.1 1.8 0 .2-.5 1-1 1.5-.8.9-1 1.3-.6 1.6.2.3.4 1.2.4 2.1 0 2.1.9 3 3.1 3 1 0 1.8.2 1.9.4.1.2.5.3.7.1l4.1-.4c16.1-.3 26.2-4.9 44.6-20a74.2 74.2 0 0 0 27-47.7c1.9-13.1-.7-18.6-11.5-24.6-7.4-4.2-8.9-5.9-12.3-14.3-3.7-9-13-18-17.8-17.1M65.5 170.3c-2.9 4.8-4.4 8.3-3.7 8.4 1.5.3 5-4 5-6.3 0-.5.2-1.2.4-1.6.3-.5.4-1.5.3-2.2l-.1-1.4-1.9 3m53.7 18.6c-11 5.4-16.5 9-17.8 11.7-.9 1.6-.2 1.7 8 2 8.3.3 14 1.4 20.7 4 8.2 3.3 8.5 2.7 5.8-10.5-2.8-13.3-3.7-13.7-16.7-7.2M60.4 214a138.2 138.2 0 0 1-57.1.8c-2.4-.5-3.3-.6-3.3-.2 0 1.4 7.6 3 18.4 3.8 15 1.1 19.2 1 32.3-1.6 15.4-3 22.1-3.4 22.1-1.4 0 2.9-9.5 11.9-15 14-7.4 3.1-25.9 3.7-43.2 1.4a14475.4 14475.4 0 0 0-14.4-1.7c-.1.2-.2 7-.2 15.3v15.1l2.3.3c1.3.1 4.5.8 7.3 1.4 5.6 1.3 16.3 3 22.4 3.6 2.3.2 5.5.7 7.2 1 6 1.3 7.4 0 10.5-9.2a112 112 0 0 1 4.7-11.6A64.2 64.2 0 0 1 71 222c11.5-12 11.4-12-10.7-8m333.3 12.8c-1.8 1-3 3.6-4.5 8.6-1.8 6.7-3.8 12.2-6.8 18.6l-3.8 8.3a75 75 0 0 1-3.2 6.5c-4.3 8-3.8 8.6 7 10 11.4 1.5 15 2.2 16.2 3.2 1.4 1.3 1.4 1 1.4-25.9V230l-1.9-1.7c-2.4-2.1-3-2.3-4.4-1.4m-280.3 7.8c5.5 2.8 6.5 7.7 2.9 15.2a42 42 0 0 0-.2 35.1c7.6 15.3 17 22 35.3 25.1 3.7.6 8.8 1.6 11.2 2.2 18.3 4.4 36 4 51.8-1.2 3.6-1.2 9.2-2.7 12.4-3.5 7.8-1.9 16.5-5.3 29.9-11.7 9.5-4.6 21-14 32.3-26.3 10.2-11 16-16.3 17.9-16.3 1.7 0-4.4 14.8-9 21.8a67 67 0 0 1-18.1 17.9 208.5 208.5 0 0 0-23.3 16.6c-4.4 3.5-11 6.3-28.5 12.1a183 183 0 0 1-17.2 4.5c-5.3.9-26.2.6-35.2-.5-5.4-.6-10.9-1-20-1.2-16-.4-19.9-1.4-28.3-7l-6.8-4.4c-11-7-15.4-13.8-19.3-29.2-3.2-13-5.2-16.5-10.6-19.2-4.3-2.2-4.7-3-4.4-8.3.8-15.4 15.8-27.4 27.2-21.7m38.8 2.3c-.4.6-.7 3-1 6.9-.4 6.4-1 9.4-3.4 16-2.6 7.1-2 8.7 5 13 11.1 6.9 31 12.7 36 10.4 6-2.8 6.2-3.4 2.6-10.6a43.5 43.5 0 0 1-2.6-5.8c0-.7-6.6-7.4-9.3-9.6-.9-.6-4.4-3.7-7.8-6.7-17-15.1-18-15.8-19.5-13.6M37.6 277.6c-1.3 1.3.6 4.8 4.5 8.2 2.5 2.1 3.8 1.4 3.4-1.9-.7-5-5.4-8.8-7.9-6.3M0 292.4c0 .2.2.4.4.4s.6.2.9.5l5.3 4a80 80 0 0 1 14.4 14c.6 1.8-.4 1.9-4.7 0-5.2-2.1-12.7-4.7-14.7-5L0 306v3.2l3.1.5c12.3 2 23 10.8 32.1 26.5a42.5 42.5 0 0 1 7 19.9l1.8 9.8c3.2 15 .3 25-9 31.1l-2.8 2-1.2 1h22.7c19 .1 22.7 0 22.7-.5 0-.3.2-.7.6-1 .3-.2.6-1 .8-1.7a19 19 0 0 1 3-6.3c4.7-6.4 3.9-11-4-21.5-3-3.9-5.3-7.4-8.4-12.8a40.6 40.6 0 0 0-11.2-13.8 151.5 151.5 0 0 1-17.7-17.2A111.4 111.4 0 0 0 27 312.4c-10.7-10-27-22-27-20m363.2 15c-6.3.7-11.2 2-21.4 5.7a53396 53396 0 0 1-12.5 4.7c0 .1 4-1.2 8.7-2.9 18.8-6.6 20.5-6.9 34.1-6.9 9 0 13.5.4 17.9 1.6 6.3 1.7 10.9 2.3 10 1.4-.3-.2-8.1-2-13-2.9-3.1-.5-19.8-1-23.8-.6M326.3 319c-1.6.9-1.4 1.2.2.4 1.5-.8 1.8-1 1.3-1l-1.5.6m-5.7 3.4a53.9 53.9 0 0 0-16.4 13.6 366 366 0 0 1-6.8 7.6 99.1 99.1 0 0 0-23.4 50.3c-1 6-1 6.1-.3 6.1.5 0 1-2.6 2.5-11.6a98 98 0 0 1 22.1-44.7c2.2-2.4 5.5-6.2 7.2-8.4 4-5 6.1-6.8 12.8-11 6.8-4.3 6.7-4.2 6.5-4.3l-4.2 2.4m38.9 4c-1.2 1-1.7 2.3-2.3 6.4-1.1 7.5-6.3 12.5-14.4 13.7-5.1.8-7.4-.2-12.6-5.5-5.2-5.3-6.6-5-11.5 2.3a34.7 34.7 0 0 1-7.5 8.5 61.2 61.2 0 0 0-16.4 21.4 178 178 0 0 0-7 17.7l-1.2 3.1a19 19 0 0 1-1.3 2.7c-2 3.6-3.2 3.3 16.3 3.3h17.2v-1.5c0-12.5 14.1-27.8 30.6-33.2a91.1 91.1 0 0 1 48.3-1.3l2.3.8v-37.2l-1.8-.2c-2.4-.4-3-.2-8 2.8-8.7 5.2-14 5-22.7-1.1a18.3 18.3 0 0 0-6.7-3.5 4 4 0 0 0-1.3.8m-195.2 40.8 7.3 2 9.6 2.4a75 75 0 0 1 12.3 3.5 241 241 0 0 0 26.3 5.7c1.8.2 7 .4 11.5.3l8.3-.1 1 1.1c2.2 2.2.7 9.6-2.1 11-.5.2-1.2.6-1.4.9-.8.7-4 .4-9.8-1l-9.7-2c-23.2-3.7-34.7-7-47.2-13.2-13.3-6.7-17.1-13.3-6.1-10.6M368.8 394c-5.4.5-9.2 2-12 4.7l-1.4 1.3h32.8l-1.6-1.3c-4.7-4-10-5.4-17.8-4.7M0 395.7c0 1.9 4.5 4.4 7.6 4.2l2.5-.1-4.8-2.4-5-2.5c-.2-.1-.3.3-.3.8"/>
    <path fill="#f4e9b0" d="M258.4.6c0 2-3.5 5-9.6 8.2a58.3 58.3 0 0 1-45.8 1.8c-10.4-3.5-12.1-3-7 2.3a40 40 0 0 0 37.4 11c10.2-2.3 17-4.6 21.6-7.4a48.6 48.6 0 0 0 11-11.1c.9-.8 1-1.3.8-1.6-.3-.3-.3-.6 0-.7.1-.2.3-.9.3-1.7V0h-4.3c-3.5 0-4.4.1-4.4.6M88.2 8.3A103 103 0 0 0 64 14c-22.2 6.9-38 18-52.5 37.1-2.3 3-5.2 6.4-6.3 7.5l-3.6 4L0 64.9v14.5c0 8 .2 14.2.3 13.8 0-.4.3-.7.5-.7s.4-.5.6-1c.1-.6 1.5-2.9 3-5.1l3.8-6.1a54 54 0 0 1 10-14.7c2.2-2.3 5.6-5.9 7.4-8 3.9-4.1 7-6.1 13.8-9.2a57.2 57.2 0 0 0 16.6-11c7-6.6 8.2-6.8 14.7-3.1 4 2.2 6.4 2.7 11.9 2.7 8.6 0 12-1.4 17.5-7.4 2.5-2.7 4-4 5-4.3 3-1 13 .2 19 2.2 4.6 1.5 13.9 4.8 17 6 10.5 4.2 28.6 15 37.3 22.3 5.2 4.3 8.9 5 11.2 2 2-2.6.6-5.2-7.4-13.1a116.4 116.4 0 0 0-45.7-30c-19.8-6-32.6-7.7-48.3-6.3m247.2 16.9c-1.7 2.8 17.3 20.7 26.3 24.8 1.9.8 5 2 5.3 2 2 0-3.6-8.2-9.1-13.6-8.9-8.6-21-15.7-22.5-13.2m-80.8 40.5a84.2 84.2 0 0 0-42 13.7c-19 11.2-27.2 20.3-37.8 41.6a58.2 58.2 0 0 0-7.7 29.6c-.1 13.9 4.5 12.2 10.7-4l2.7-7.2a88 88 0 0 1 16.8-25.5c3.1-3.5 6-6.7 6.2-7.1 4.7-6.5 27.4-20.9 38-24.2a107 107 0 0 1 44.5-.4c9 2 11.6 3.2 16.6 7 5.3 3.8 9.1 6 14.1 8 6 2.4 8.7 4.6 17.3 14.2 12 13.5 17.7 22.8 23.8 39.6a111.9 111.9 0 0 0 5.8 13c1.5 1.6 2.6-.3 2.8-4.9a113 113 0 0 0-10-36.7l-5.6-12.2a38 38 0 0 0-11.3-15.4 80.2 80.2 0 0 0-31.7-20l-7.6-3.4c-10.8-4.9-27.7-7-45.6-5.7m124 28.2c-3.1 1.5-3.3 3.7-.6 7.4 3.5 4.9 7.2 6.6 15.3 7.3 1.7.1 3.7.4 4.4.6 2.4.7 2.3 1 2.3-7.2v-7.6l-3.1.3c-2.2.1-4.4 0-7.7-.7-5.6-1-8.5-1-10.6 0M62.9 214.5l-12.2 2.2a92.9 92.9 0 0 1-32.3 1.6 57.9 57.9 0 0 1-16.7-2.8C0 214.8 0 215 0 222.1v7h1.1l13.3 1.7c8.6 1.1 22.8 1.7 29.7 1.2 12.4-1 16.8-2.7 23.7-9.8 7.6-7.8 6.8-9.1-4.9-7.6m39.3 19.5a24.5 24.5 0 0 0-16 22.2c-.3 5.3.1 6 4.4 8.3 5.4 2.7 7.4 6.3 10.6 19.2 3.9 15.4 8.4 22.2 19.3 29.2l6.8 4.5c8.4 5.5 12.4 6.5 28.3 6.9 9.1.2 14.6.6 20 1.2 9 1.1 30 1.4 35.2.5 4-.7 13-3 17.2-4.5 17.4-5.8 24-8.6 28.5-12l6.4-5.2c3.3-2.6 7-5 16.9-11.5a67 67 0 0 0 18-18c4.7-6.9 10.8-21.7 9-21.7-1.8 0-7.6 5.3-17.8 16.3a118.9 118.9 0 0 1-32.3 26.3 156.2 156.2 0 0 1-29.9 11.7c-3.2.8-8.8 2.3-12.4 3.5a95.2 95.2 0 0 1-51.8 1.2c-2.4-.6-7.5-1.6-11.2-2.2-18.2-3-27.7-9.8-35.3-25a42 42 0 0 1 .2-35.2c2.5-5.3 2.8-9.8.7-12.5-3-3.7-9.6-5.1-14.8-3.2M0 299.3v6.6l1.6.2c2 .4 9.5 3 14.7 5.1 4.3 1.9 5.3 1.8 4.7 0a80 80 0 0 0-14.4-13.8l-5.3-4c-1.1-1.2-1.3-.5-1.3 6m358.9 9.2c-4.3.6-6.5 1.3-21.4 6.5a69.8 69.8 0 0 0-19.2 9.2 41 41 0 0 0-12.7 11c-1.8 2.1-5 6-7.3 8.4a97.6 97.6 0 0 0-23.3 52c-1 4.7-1.3 4.3 4.4 4.3 4.7 0 5 0 5-.8a7 7 0 0 1 1-2.5l1.2-2.7c.2-.6.7-2 1.3-3l.9-2.5c0-.7 4.8-12.9 6-15.3a61.2 61.2 0 0 1 16.4-21.4c3.6-3.2 5-4.6 7.5-8.5 4.9-7.4 6.3-7.6 11.5-2.3s7.5 6.3 12.6 5.5c8.1-1.3 13.3-6.2 14.4-13.9 1.2-8 3-8.6 10.2-3.5 8.1 5.6 13.8 6.2 20.8 2.2 7.7-4.4 7.3-4.2 9.6-4l2.2.3v-15.9l-3.5-.6a109.5 109.5 0 0 0-37.6-2.4M158 367.5c0 3.3 8 8.7 21.2 14.3 7 3 21.8 6.5 38.4 9.1l9.7 2c5.7 1.4 9 1.7 9.8 1 .2-.3.9-.7 1.4-1 2.8-1.3 4.3-8.7 2.2-10.9l-1.1-1.1-8.3.1c-4.6 0-9.7 0-11.5-.3a241 241 0 0 1-26.3-5.7 75 75 0 0 0-12.3-3.5l-9.6-2.5c-10.7-3.1-13.6-3.4-13.6-1.5M0 398.4v1.6h5l-1.4-1a213 213 0 0 0-2.5-1.6l-1.1-.7v1.7"/>
    <path fill="#734d2b" d="M0 2.2C0 5.7 4.3 13.6 7.1 15c5.7 3.1 13.8-.5 25.3-11.3C36.2.2 36.2 0 33.6 0c-2.1 0-3.8 1-8 4.6-10.4 9-16.5 9.7-19.8 2C3.5 1.1 2.8 0 1.3 0H0v2.2m164.3-1a81.9 81.9 0 0 0 19.6 17 143 143 0 0 1 27.5 25c5.4 6.5 7.6 6.8 18.7 3.3 6.3-2 10.6-3 25.1-5.3 19.5-3.1 23.5-4.5 30.3-10.5C297 20.5 308.8 0 303 0c-1.3 0-1.3 0-2.8 3.8a66.2 66.2 0 0 1-23.4 27.4c-3.8 2-16.6 5-33.6 7.8-6.6 1.1-10 2-16 4-7.6 2.6-9 2.2-15-5-4.8-5.7-13-12.4-27-22.1-7.1-5-8.5-6.1-13.6-11.3C167.2.1 167 0 165.3 0h-1.8l.8 1.2m33.7-1c0 .4 12.2 6.2 14.3 6.8a61.8 61.8 0 0 0 23.5 0c2.3-.6 13.6-6 14-6.7.3-.4-2.7-.4-3.2 0-.6.6-9.3 4.3-11.8 5-3 1-13.7 1.4-17.9.7-3.5-.6-7.2-1.9-14.8-5.2-1.6-.7-4.1-1-4.1-.6m151.6.1c0 3.7 10.4 3.6 10.4 0 0-.2-2.3-.3-5.2-.3-2.9 0-5.2.1-5.2.3m30.5 1.6c-2.8 16.6 6.2 33.4 19.2 36 2 .3.8-2.5-1.3-3.3-9.2-3.3-16-16-16-29.9 0-4.4 0-4.7-.8-4.7-.6 0-.8.4-1 1.9M90.5 1.3A66 66 0 0 0 71.3 4C67.6 5.3 67.6 5.3 61 7.2 41.3 12.6 18.5 29.7 4 49.8c-1 1.3-2.2 3-2.9 3.7-.7.7-1.1 1.5-1 2 .2 1.4 1.4.3 4.4-3.6 17.5-23.2 36.1-37.1 57-43l10.7-3c15.6-5 40.2-5.2 52.6-.7l9 3A132 132 0 0 1 182.3 37c18 15.9 19.3 21.3 7.3 29.2-2 1.4-8.8 6.9-15 12.2-16.8 14.4-17.6 14.6-24.8 6.5-15-16.9-36-24.2-63.2-22.1a58.3 58.3 0 0 0-36.4 14.7c-6.3 5-8 7.5-12.2 17.3a46.8 46.8 0 0 0-5.5 22.2c-.4 11 .3 14.7 4.5 25.4 4.8 12.1 2.8 19.7-6.3 24.4a34 34 0 0 1-30 .2c-.6-.2-.7 0-.7 1.5v1.7l2.6 1.1a32.6 32.6 0 0 0 29.7-.7c11.2-5.7 13-14.3 6-31.7-5.8-15-4.5-30.1 4.3-47.9 5.7-11.5 20.2-21.1 37.8-24.9 4.3-.9 23.1-1 28-.2a51 51 0 0 1 22.6 7.8c7.8 4.5 11 7 15.4 12.3 6 7 7.2 8 10.1 8 4.5 0 5.4-.7 23.6-17.2 3.3-3 7.7-6.7 9.8-8.3 12.6-9.5 12.4-16.3-1-28-21.5-19-37-28.7-54.6-33.9-2.5-.7-5.8-1.8-7.3-2.4-8.2-3.2-16.3-3.8-36.4-3M324.8 8c-3.3.6-4.9 2.2-8.4 8.2a70.4 70.4 0 0 1-9.2 12.4c-10.3 12-9.6 17 3.2 23 14.5 7 19.7 10 37.2 22.2 8.4 5.8 14 6.7 23 3.7a51 51 0 0 1 20-3l9.4-.2v-2c-.2-2.5-1.2-2.9-7-2.5l-12 .6c-5 .2-10.2.7-13 1.2-11.9 2.2-15.7 1-35-11.6a91.4 91.4 0 0 0-17.2-9.4C301 44 300 41 308.5 31.4c4.9-5.4 6.2-7.2 9.3-12.6 6.3-11 8.5-11 24.2-1 12.7 8 16.2 10.8 26.4 21.2 8.4 8.5 9 9 24.7 19.7 2.4 1.6 4.6 2.5 6.2 2.5.6 0 .7-.3.7-1.7v-1.8l-3.9-1.5c-9.4-3.8-16-8.5-26.5-19-11-11-17.8-16.2-33.4-25.8-5-3-8.2-4-11.4-3.4M254 58.7c-18 1.4-35 7.8-54 20.4a89.2 89.2 0 0 0-29.1 34.5 91.7 91.7 0 0 0-11.7 35.4c-3.9 24.8-3.8 29.8.6 45.2 5.4 18.7 16.4 31.4 31.9 36.5 12 4 20.7 1.8 25.8-6.4 4.2-6.8 5.5-12.2 4.3-18-.5-2.6-1.8-6-7.7-21.5a60.9 60.9 0 0 1 5-45.9c2.7-5 12.8-12 23.3-16 15.4-6 41.8-1.6 52.2 8.9 9.7 9.7 19.5 32.8 21 49.3a109 109 0 0 1-11.4 51.7l-5 10a52.7 52.7 0 0 1-9.1 14 121.5 121.5 0 0 1-64.7 44l-12.6 3.6c-18.4 5.3-24.9 5.4-47.8.4-19.5-4.3-25.3-5.8-28.9-7.6-14.5-7.2-20.7-27.6-13.6-44.8 4.2-10 3.6-16.1-2-21.2-11.5-10.5-31-3.4-40 14.6a99.5 99.5 0 0 0-7 41.8 118 118 0 0 0 24.7 62.6c5.5 7 10.6 14 14.8 19.8l6.7 9.4c4 5.5 11.5 13.7 16.7 18 3.1 2.6 3.1 2.6 5.6 2.6h2.6l-6.2-5.9a309 309 0 0 1-9.2-8.9c-3.1-3-12-14.8-16-20.8-2.3-3.7-10-14.1-14.8-20.3-11.9-15.2-17.4-29.4-21.8-55.5-1.2-7.4 1-28.9 3.8-37.5 5.7-17.1 22-27.4 34.5-21.6 8.8 4.1 10.7 10.8 6.2 22a37.6 37.6 0 0 0 9 43.6c4.6 4 10 6 23.9 9 4.3.8 10.3 2.1 13.4 2.9 16.7 4 29.2 4 42.6 0a503 503 0 0 1 11-3.3 121.2 121.2 0 0 0 70.2-45.7c7-8.4 6.8-8.2 12.5-19.6 12.9-25.5 17.7-47.7 14.1-64.8a130.3 130.3 0 0 0-15.3-36.2c-8-14-22.9-20.3-45.8-19.7a42 42 0 0 0-24.5 6.7c-11.4 6.3-14.2 9.6-19.2 22-5.1 12.7-5 30 .1 42.8 7.2 18 7.4 23.7 1 33.3-5.5 8.3-16.7 8.8-30.2 1.2-16.3-9-26.8-33.4-24.7-57.5 2.4-28.5 7.1-44.3 18.4-61.6a108.7 108.7 0 0 1 49-38.3c21.5-9 59.3-8.3 79 1.5 2.3 1.2 5.4 2.6 6.8 3.2 19.3 8 36.4 22.5 42.6 36l5.4 11.3a135 135 0 0 1 15 57.7c.4 10.4-2 25.7-5.2 34.6l-3.8 11.4c-5.4 17.2-8.8 25-15 34.2l-7 11a90.4 90.4 0 0 1-33.4 33.4 90.7 90.7 0 0 0-11 8.2 326 326 0 0 1-11.4 9c-4.8 3.6-11.1 8.5-14 11a112.2 112.2 0 0 1-53.3 22.5c-17.1 2-31.9-.1-59.5-8.3-18.2-5.4-21.2-5.5-22-1.2-1 4.9 4.2 9.2 16.8 14.3l9.9 4.2c4.2 2 11 4.2 20.1 6.7 3.7 1 8.6 2.4 10.9 3.2 10.4 3.5 24 4.5 38.7 2.7 15.8-1.8 17.7 2.7 10.7 26.4-.1.6 0 .7 1 .6 1.3-.1 2.1-2.1 3.7-9.2 4.2-18.5 1.3-23.3-12.5-20.7a77 77 0 0 1-13.3 1.6c-10.6.7-19.3-.3-28.4-3.2l-11.3-3.4c-9.2-2.6-14-4.3-18.5-6.6-2-1-5.8-2.8-8.2-3.8-9-3.9-13-6.7-13-9.1 0-3 3.2-2.8 15.6 1.2 2.8 1 7.3 2.2 10.2 3 2.9.6 7.8 1.9 11 2.7 19.8 5.4 37.1 5 57.2-1.3 19.2-6 27.4-10.2 38.5-20 6.8-6 13.2-11.2 18.1-15 2-1.4 4.9-3.8 6.5-5.1a125 125 0 0 1 9.6-7 91.3 91.3 0 0 0 33.9-35c1.5-2.6 4.1-7 5.8-9.6a115.7 115.7 0 0 0 14-28.8c.9-2.9 2.6-8.2 3.9-11.8 6.1-18.3 8.3-33 6.9-47.4-1.7-17.6-6.8-35-15.5-53.2l-6.3-13.2a71 71 0 0 0-20-22.4c-9-7.2-31.9-18.8-42-21.3a149 149 0 0 0-39.8-2.6M87.6 77a44.3 44.3 0 0 0-27.7 13.8c-13.2 14.4-15.1 25.9-7.3 42.9 9.4 20.2 8.4 29.8-4.5 46.6-7 9.2-8 13.3-3.1 15.1 5.4 2.1 19.7-4 26.3-11.3 3.3-3.8 4.3-6.4 14-38.1a174 174 0 0 1 11.5-27.4c3.4-7 7.4-11 16.9-17.4 7-4.7 8.1-6 8-9.1 0-8.5-19.2-17-34.1-15m14.7 4.7c9 2.2 14.7 6.4 13.9 10.2-.3 1.5-2.3 3.5-5.6 5.7a48.6 48.6 0 0 0-20.5 23.9c-5.2 10.8-6 12.6-10 25.8-9.8 31.3-11.5 34.6-22 39.8-9.5 4.9-10.8 1-3-9.4 10.3-13.8 10.8-26.4 1.7-44.6-8-16-6-28.3 6.9-40.8a43.4 43.4 0 0 1 38.6-10.6m273.1 5c-11 2.7-11.3 8.8-1.4 23 4.4 6.4 4.8 7 8.2 15 4.6 10.8 8.2 14.4 15.3 15l2.5.3v-1.5c0-1.2-.2-1.5-.8-1.7-6-1.5-9.3-4.7-13.4-13a80 80 0 0 0-10.4-16.1c-6.8-8.7-7.9-13.3-4.2-17 4-3.7 15-4.3 25.1-1.2 3 1 3.7 1 3.7.2 0-2.6-17.5-4.8-24.6-3m-248.6 18.1a18 18 0 0 0-5.4 4.5 79.1 79.1 0 0 0-20.3 39.8l-3.5 15c-3 12-1.5 16.4 5.2 16.4 6 0 24.1-12 29.8-19.8 7.7-10.3 12-29.6 8.9-39.7-4.2-13.7-8.3-18.1-14.7-16.2m5.8 5.3c3.8 2.8 7 14.3 6.2 21.6-2 17.9-7.9 28.5-20.2 36.2l-7.2 4.6c-9.4 6.9-12.8 3.1-9.4-10.2l3-12.8c5.1-23 20.4-45 27.6-39.4M252.4 136a31.7 31.7 0 0 0-26.4 30.3c0 5.8 1 8 9.1 19.9 8 11.6 9.6 16.1 9.2 26.2-.6 17.4-15.7 33.3-34.4 36.3a43.6 43.6 0 0 1-35.4-7.8c-19.9-14-24.7-20.8-31.1-44a2426 2426 0 0 0-3.1-10.9c-2.2-7.7-6.7-10.5-14-8.6-4 1-19.5 9.1-27.5 14.3-18.3 12-27.5 15.2-53.2 18.8-5.6.7-23.7.6-32-.3-8.2-.8-13.3-.7-13.5.3-.1.6.2.7 3.1.7 1.8 0 6.4.3 10.1.7a157 157 0 0 0 53.5-3.8 81 81 0 0 0 32.4-13.8c10-6.4 27.4-14.7 30.8-14.7 5.4 0 6.6 2.1 9.8 17 3.6 16.4 6.1 24.9 8.3 27.3 4 4.4 25.3 22.5 31.2 26.4 12.6 8.6 34.6 7 48.2-3.3 15.4-11.6 21.6-23.5 20.8-39.8-.5-9.7-2-12.8-14-29.9-9.5-13.5-.5-32 16.7-34.5 12.7-1.7 20.3.5 27.3 8.2 5.6 6 6.2 11.1 1.8 14.8-3 2.6-1.6 6.3 4.9 13 5.8 6.1 7.2 9.3 7.6 17a70.2 70.2 0 0 1-11.4 40 65 65 0 0 1-12.7 16c-12 11-20.7 17.4-29 21.6a90 90 0 0 1-21.1 7.6l-11.4 3.3c-19.5 5.5-22.5 5.6-36 1.3-15.3-5-28.5-12.5-29.7-17-.6-2-.3-3.6 2.2-10.2a46.1 46.1 0 0 0 2.7-26.8c-1.2-9.6-1.2-9.7-9.8-16.1-14.6-11-28.2-12-45.6-3.3-10 5-26.5 20.6-30.7 29-2.4 5-6.5 15-7.7 19.4-.7 2.4-2.1 6-3 7.9-2.1 4.2-2.2 5-.6 9.7 5.8 17.3 1.2 25-8 13.3-1.6-1.9-4.2-5-6-6.8a36.5 36.5 0 0 1-7.5-10.2c-2.8-5.6-7-7.6-22.9-11.1l-3.5-.8c-.8-.2-.9 0-.9 1.8 0 1.7.1 2 .7 2a51.8 51.8 0 0 0 7 3c5 2 7.2 3.2 9.9 5.3 3.3 2.5 16.3 14.4 18.3 16.8 13.7 16.3 20.4 14 18.3-6.3-1.5-14-.4-20 6.7-37a49.4 49.4 0 0 1 13.4-20.6c21.2-21.2 43.6-24.3 59.8-8.3 10.4 10.3 11.9 23.4 4.6 40.2-5 11.5-2.1 15.8 16.3 24.7 22.6 11 38 11.2 68.6 1.2 29.8-9.9 56.1-32.9 67.3-59 7.6-17.8 8.8-32.2 3.7-47.3a32 32 0 0 1-2.2-10.8 35.6 35.6 0 0 0-40-32.3m144.9 23.6a7.7 7.7 0 0 0-4.3 5.3 284 284 0 0 0-.6 36.1c.7 10.7.8 10-2.6 14-3.5 4.2-4.9 7.4-9.2 22.2-2 7.1-2 7.1-6 16-4.2 9-5.1 10.8-8 15.4-4.6 7.5-5.1 11.2-1.9 14.7 2 2.1 9.9 3.2 28.4 3.8l6.9.2v-1.2c0-.7 0-1.3-.2-1.3l-4.7-.8c-6-1-13.5-1.9-19.1-2.2-9.5-.6-11.2-3.7-6.1-11.2 3-4.5 4-6.5 6.5-12l3.8-8.3a96.3 96.3 0 0 0 6.2-17.8c2.4-9.5 3.4-11.4 7-13 2.2-1 3.4-.5 4.8 1.7a8 8 0 0 0 1.4 1.8c.7.4.5-22.7-.2-24.4-1-2.3-1.9-11.8-1.5-16.2a46 46 0 0 0-.3-12c-.7-4-.3-7 1.2-8.4 2.5-2.3 1.4-3.8-1.5-2.4M0 287.2c0 .8 1.2 1.5 4.7 2.9 7 2.6 29.2 21.5 37.3 31.7a67 67 0 0 0 11.8 11.8c6 4.9 11 9.2 13 11.5 1.9 2.2 3 3.8 11.3 15.9l5.3 7.4c6.8 8.5 9.3 14.9 7.3 18.8a105 105 0 0 1-9.1 11.8c-1.1.7 0 1 3.3 1h3.8l3.6-3.7c9-9.3 8.1-15.5-4.3-31.2-1.8-2.1-4-5-4.9-6.4A89.1 89.1 0 0 0 55.7 330 57.2 57.2 0 0 1 43 319.2a274.8 274.8 0 0 0-29-25.7A39.7 39.7 0 0 0 4 288a10 10 0 0 1-2.7-1.2.7.7 0 0 0-1.4.4m365.2 14.4c-8.5.6-16 2.3-23.4 5.3l-8.6 3.2a79 79 0 0 0-17.4 8.5c-9 5.5-8.2 4.9-21.6 19.6-14.4 15.8-25 38.9-25.7 56.1l-.2 5.7h1c.8 0 1-.1.8-1.6-1.4-14.6 10.5-42.7 24.8-58.4l7.2-8.2c7-8.5 19-16 32.5-20.7l9.3-3.5a90.8 90.8 0 0 1 50.8-2c5.8 1.4 5.3 1.3 5.3.6 0-1.5-11.8-4-21.6-4.6-6.7-.4-7-.4-13.2 0M0 313c0 .7.5 1.2 2.5 2 6.7 3.2 9.1 4.5 11.7 6.5 17.3 13 21.8 33.3 10.2 45.6-6.4 6.8-5 11.3 3 9.3 10.9-2.8 10 11.6-1.2 17-5 2.5-11.6 1.4-24.7-4.3l-1.5-.6v1c0 1.2 1.8 2.3 7.9 4.9 13 5.4 18 5 25.8-1.8 7-6.1 8.7-13 5.5-23.5a54 54 0 0 1-1.8-9.8 46 46 0 0 0-9.6-27.6 51.3 51.3 0 0 0-24.1-18.4c-4-1.4-3.7-1.4-3.7-.3m0 27a9 9 0 0 0 .7 3.5c.6 1.3.6 1.5 0 2.8-.8 1.7-1 6-.2 5.7 1.4-.4 3.7-6.3 3.2-8.2-1.2-4.5-3.7-7-3.7-3.7m368.8 25c-24.5 2.6-39.7 12.6-45.8 30.2-1.7 5.1-1.7 4.9 0 4.7 1.5-.1 1.5-.1 2.9-3.8 7.4-21 33.4-32.3 63.3-27.3 2.5.4 6 .9 7.7 1l3.1.3v-1c0-2.5-20.4-5.1-31.2-4m-2.8 21c-9 1.2-14.9 4.3-19 10-2.4 3.5-2.4 3.9.4 3.9h2.3l3.2-3.3c5-5.2 8.8-6.6 18.7-7 10-.4 16 2 21.2 8.6 1.3 1.6 6.4 2.7 6.4 1.5 0-2-6.1-7.9-10.7-10.5A38.5 38.5 0 0 0 366 386"/>
    <path fill="#85714c" d="m2.8.3.8 1.6 2 4.2c2.4 5.8 5.6 7.2 11 4.8 2.3-1.1 5.9-3.7 13.6-9.9l1.2-1H29c-2 0-2.7.2-3.5.8l-1.3.8c-.2 0-1.4.8-2.6 1.8C14 9.4 11 9.4 8 3L6.3 0H4.6c-1 0-1.8.1-1.8.3m164.8 0c0 .8 10.8 11 13.8 12.9a167.2 167.2 0 0 1 31 25c5.8 7 7.2 7.4 14.9 4.8 5.8-2 9.3-2.9 16-4 17-2.9 29.7-5.8 33.5-7.8A66.9 66.9 0 0 0 301.4.7c.2-.6 0-.7-1.7-.7h-1.9l-1 2.1a69 69 0 0 1-15.5 20c-7.4 7-9 7.6-33.1 12a170 170 0 0 0-20 4.7c-7.3 2.3-8.6 2-12.2-2.2a173.5 173.5 0 0 0-31.5-26c-2.7-1.9-6.3-4.7-8-6.2C172 .6 171 0 169.2 0c-.9 0-1.6.2-1.6.3m24.8.1c0 .3.6 1 1.4 1.7 16 14.1 44.7 14 59.4-.2L255 .2l-2.3-.1c-1.6-.1-2.6 0-3 .4a86 86 0 0 1-14 6.5 46 46 0 0 1-32.1-3.8C197.3 0 192.4-1.2 192.4.4M382 4.7c0 13 6 25.2 14.5 29.2 3.3 1.6 3.5 1.6 3.5-.3 0-.9-.2-1.6-.3-1.6-.6 0-4.5-3.1-6.4-5a34 34 0 0 1-7.5-19.4c-.7-6.8-1-7.6-2.4-7.6H382v4.7M96 2.2a75.5 75.5 0 0 0-23.8 3.6L61.5 9c-21 5.8-39.5 19.7-57 43-1.4 1.7-3 3.5-3.5 3.9-1 .5-1 .8-1 3.8V63l1.3-1.6L4.6 58c1-1 4.3-4.9 7.3-8.6 18.7-23.3 40.3-36 69.8-41.2 10-1.7 28-2.2 33.7-.9A139.5 139.5 0 0 1 186.6 47c8 7.8 7.8 10.2-.7 16.8-2.6 2-8.6 7.1-13.5 11.4-15 13.2-14.2 13-22.6 4.8a75 75 0 0 0-29.7-18.2A113 113 0 0 0 74 61c-15.5 4.1-31.3 15.2-36.6 25.8-9.9 19.7-11.4 37-4.6 55.3 4.6 12.8 3.6 18.4-4.2 22.1-8 3.8-15.6 3.8-27.9 0-.6-.2-.7 0-.7 1.1 0 3.6 14.4 6.3 23 4.3 15.2-3.5 19.8-12.4 14-27.2a49.4 49.4 0 0 1-4.5-25.4c.3-9.1 1-11.5 5.5-22.2 4.2-9.8 6-12.2 12.2-17.3a58.3 58.3 0 0 1 36.4-14.7c27.3-2 48.2 5.2 63.2 22 7.2 8.2 8 8 24.8-6.4 6.2-5.3 13-10.8 15-12.2 12-7.9 10.6-13.3-7.3-29.2a132 132 0 0 0-48.5-28.8l-9-3a71.4 71.4 0 0 0-28.8-3m228.2 9c-2.2 1-3.3 2.3-6.4 7.6a60.8 60.8 0 0 1-9.3 12.6c-8.5 9.7-7.4 12.7 7.3 19.2 8 3.5 9.3 4.3 17.3 9.4 19.2 12.5 23 13.8 35 11.6 2.7-.5 7.8-1 12.9-1.2l12-.6c2-.2 4.4 0 5.3.1l1.7.4v-4.5c0-4.1 0-4.6-.7-4.6-1.6 0-3.8-1-6.2-2.5A112.3 112.3 0 0 1 368.4 39 114.9 114.9 0 0 0 342 17.8c-11.2-7.1-14.3-8.3-17.8-6.7m7.9 5.9a134.2 134.2 0 0 1 31.1 23 105 105 0 0 0 17.3 15.4c11.2 7.6 11 10.3-1.1 11.4l-11.6 1.4c-11.7 1.7-15 .5-36-13.4-2.8-1.8-7-4-18.1-9.3-7.2-3.4-7.2-5.4-.2-13.6 2.4-2.8 5.4-6.8 6.7-9 4.5-7.6 6.6-8.6 11.9-6M256 60.3a84.6 84.6 0 0 0-35.3 8.8c-26.3 13.2-38.1 24.6-49.7 47.8-7.6 15.3-9.7 24-11.8 49.4-2 24.1 8.4 48.5 24.7 57.5 13.5 7.6 24.7 7.1 30.2-1.2 6.4-9.6 6.2-15.3-1-33.3a61.4 61.4 0 0 1 0-42.9c4.9-12.3 7.7-15.6 19-21.9a42 42 0 0 1 24.6-6.7c22.9-.6 37.8 5.8 45.8 19.7l3.4 5.6c3.8 6 10.2 22.4 12 30.6 3.5 17-1.3 39.3-14.2 64.8-5.7 11.4-5.6 11.2-12.5 19.7-20.4 25-38.7 37-70.2 45.6a503 503 0 0 0-11 3.2 53.6 53.6 0 0 1-20.6 2.9c-9.6 0-11.5-.3-22-2.8-3-.8-9.1-2-13.4-3-13.9-2.8-19.3-4.8-23.8-8.9a37.6 37.6 0 0 1-9.1-43.6c4.5-11.2 2.6-17.9-6.2-22-12.4-5.8-28.8 4.5-34.5 21.6-2.8 8.6-5 30.1-3.8 37.5 4.4 26.1 10 40.3 21.8 55.5 4.8 6.2 12.5 16.6 14.9 20.3a148.2 148.2 0 0 0 27.3 31.8l4 3.8h2.3c1.3 0 2.3-.1 2.3-.3 0-.5-7-7.6-11-11.1-8-7.2-8.5-7.8-16.3-19l-8-11.6c-3.2-4.5-10.5-14-13.4-17.6a100.6 100.6 0 0 1-20.2-58.2c0-27.7 7.2-44 21.5-48.8 12.6-4.2 20.7 4.3 15.5 16.3-4.8 11-4.6 26.9.5 36.8 6.4 12.3 14 17.2 32.6 21.1l11.2 2.6a90.7 90.7 0 0 0 52.8 0c3-1 7.9-2.4 11-3.2 8.4-2.2 19-6.5 31.7-13 12.2-6.1 24.4-17.1 38.4-34.5a46 46 0 0 0 9.3-14.1c.7-1.8 2.6-5.7 4.2-8.8a103.4 103.4 0 0 0 12.8-49.4c0-19.5-4.7-33.6-18.5-55.2-11.3-17.6-48.6-24-70.8-12a47.6 47.6 0 0 0-18.4 14.7 64.4 64.4 0 0 0-3.4 59c5.5 13.2 5.6 20 .4 27.1-7 9.5-27.5 3-37.8-12.1-8.6-12.5-11.7-27.7-9.7-46.7 2.2-21.5 4.1-28.6 11.7-43.8 11.3-22.5 23.2-33.8 48.5-45.8a107.6 107.6 0 0 1 66.2-5.8c8.7 1.9 29.4 11.4 38.4 17.7a73.4 73.4 0 0 1 21.5 22.6 209.3 209.3 0 0 1 15 34.4c4.8 15 5.7 21 5.7 38.1 0 16-.6 20-5 32.9l-5.4 16.4a111.5 111.5 0 0 1-13.3 27.9l-7.7 11.8c-8.2 12.8-14.2 18.5-31.6 30.3-2.3 1.6-6 4.5-8.4 6.5a240 240 0 0 1-18.6 14l-10 7.4c-7.6 6-14.4 9.8-24 13.5a105.1 105.1 0 0 1-51.6 7.3 205.7 205.7 0 0 1-34.8-8.8c-22.5-7.2-27.4-6.8-27 2.2.5 7.6 6.5 13.2 20 18.5a254 254 0 0 1 10.2 4.3 138 138 0 0 0 19.8 6.8c3.3.9 7.2 2 8.8 2.6 12 4.2 25.3 6 36.4 4.8 18.8-2 19.3-1.6 17 11.6-.5 3-1 6.7-1 8l-.2 2.4 1.3.1c1 .1 1.3 0 1.4-.6 7-23.8 5.1-28.2-10.7-26.4a89.6 89.6 0 0 1-38.7-2.7c-2.3-.8-7.2-2.2-10.9-3.2-9.1-2.5-16-4.7-20.1-6.7l-9.9-4.2c-12.6-5-17.7-9.4-16.8-14.3.8-4.3 3.8-4.2 22 1.2 27.6 8.2 42.4 10.2 59.5 8.3 8.2-1 23.3-5.5 33.1-10a67.3 67.3 0 0 0 20.3-12.5c2.8-2.5 9-7.4 13.9-11a326 326 0 0 0 11.4-9c3.5-3 6.7-5.4 11-8.2a90.4 90.4 0 0 0 33.3-33.5l7.1-11c6.2-9.1 9.6-16.9 15-34.1l3.8-11.4c9.6-26.1 6-60-9.8-92.3L355 107c-2.7-6-4.8-8.8-10.7-14.5A90.1 90.1 0 0 0 312.4 71 102.2 102.2 0 0 0 256 60.2M85.4 81.4a41.3 41.3 0 0 0-21.7 11c-12.8 12.5-15 24.8-6.9 40.8 9.1 18.2 8.6 30.8-1.8 44.6-7.7 10.3-6.4 14.3 3.2 9.4 10.4-5.2 12.1-8.5 21.9-39.8 4-13.2 4.8-15 10-25.8 6-12.4 9.6-16.5 20.5-23.9 5.2-3.5 6.5-5.6 5.1-8.4-2.9-5.9-18.8-10-30.3-8m15.5 4.5c4.9 1.1 8.7 3.6 8.7 5.6 0 1.4-1.3 2.7-7.2 7.2-8.7 6.6-10 8.3-17.3 23.6-4.9 10-6.9 15.2-10.5 27.2-1.3 4.1-4.2 11.9-5.3 14-1 1.7-1.3 1.2-1.3-2.1a63.4 63.4 0 0 0-7.2-29.3c-4.5-9.3-5.4-14.4-3.8-21.4 1.7-8 10.7-17.9 20.2-22.3 6.3-2.9 17-4 23.7-2.5M377.3 88c-10 2-10.7 8.4-2 19.8a80 80 0 0 1 10.5 16.2c4.2 8.3 6.3 10.4 12.7 12.6l1.5.6v-3.6l-2.4-1a14 14 0 0 1-4.2-3c-1.5-1.8-2.2-3-4.7-8.4a91 91 0 0 0-8.5-13.4c-5.4-7.2-6.5-9.8-5.3-12.4 1-2.4 7.3-3.6 13.8-2.6l7.1.7 4.2.2v-3.1l-3.3-1c-7-1.8-14.7-2.5-19.4-1.6m-250.7 22c-7.7 4.7-18 23.6-21.6 39.6l-3 12.8c-3.4 13.3 0 17.1 9.4 10.2l7.2-4.6c10.9-6.8 14.8-12.4 18.3-26.3 2.7-10.8 2.7-14.5.5-22.3-2.5-8.7-6.4-12.1-10.8-9.5m4.5 6.4c6.9 7.4 3.4 31.1-6.2 42a41 41 0 0 1-12 8.2c-8 4.1-8.5 3.4-5.7-10.6 4.8-23.7 18.1-45.8 23.9-39.6m119.4 26.6c-16.7 2.4-25.5 21.1-16.2 34.4 12 17 13.5 20.2 14 29.9.8 16.3-5.4 28.2-20.8 39.8-13.6 10.3-35.6 11.9-48.2 3.3-6-4-27.2-22-31.2-26.4-2.2-2.4-4.7-10.9-8.3-27.3-3.2-14.9-4.4-17-9.8-17-3.4 0-20.8 8.3-30.8 14.7a81 81 0 0 1-32.4 13.8 156.6 156.6 0 0 1-53.5 3.8c-3.7-.4-8.3-.7-10-.7H0v1.5c.2 1.9 4.6 2.9 17.8 4.1 14.4 1.4 22.4.8 42.9-2.8 22-3.9 22-4 10.4 8a64.2 64.2 0 0 0-18.6 27.4c-.9 2-2.1 5.2-2.8 7.2-3.1 9.2-4.5 10.5-10.5 9.2-1.7-.3-5-.8-7.2-1-6.1-.6-16.8-2.3-22.4-3.6-2.8-.6-6-1.3-7.3-1.4l-2.3-.3v1.5c0 1.1.2 1.4.9 1.6l3.5.8c15.9 3.5 20 5.5 22.9 11.1 1.8 3.7 3 5.4 7.6 10.2 1.7 1.8 4.3 4.9 5.9 6.8 9.2 11.7 13.8 4 8-13.3-1.6-4.7-1.5-5.5.5-9.7 1-2 2.4-5.5 3-7.9 1.3-4.3 5.4-14.4 7.8-19.3 4.2-8.5 20.7-24 30.7-29 17.4-8.8 31-7.8 45.6 3.2 8.6 6.4 8.6 6.5 9.8 16.1 1.5 11.7 1 16.9-2.7 26.8-2.5 6.6-2.8 8.2-2.2 10.3 1.2 4.4 14.4 12 29.7 16.9 13.5 4.3 16.5 4.2 36-1.3l11.4-3.3a90 90 0 0 0 21.1-7.6c8.3-4.2 17-10.6 29-21.5a67.7 67.7 0 0 0 14.8-19.8 70.2 70.2 0 0 0 9.3-36.3c-.4-7.7-1.8-10.9-7.6-17-6.5-6.7-7.9-10.4-4.9-13 4.4-3.7 3.8-8.7-1.8-14.8-7-7.7-15-10-27.8-8.1m.2 8.4c2.9 1.3 11 11.5 12.9 16.2 3.4 8.4 4.9 10 12.3 14.3 10.8 6 13.4 11.5 11.5 24.6a74.2 74.2 0 0 1-27 47.6c-18.4 15.2-28.5 19.8-44.6 20.1-2 0-3.8.3-4 .4-.3.2-.7.1-.8 0-.1-.3-1-.5-1.9-.5-2.2 0-3.1-.9-3.1-3 0-.9-.2-1.8-.4-2-.4-.4-.2-.8.6-1.7.5-.6 1-1.3 1-1.5 0-.6 1.3-1.8 2-1.8.5 0 .8-.2.8-.4s.3-.4.7-.4c.4 0 1.1-.4 1.5-.9.5-.4 2.3-1.5 4.2-2.4a51.7 51.7 0 0 0 7.5-4.4c2-1.3 8.5-6.9 13.4-11.5a45.3 45.3 0 0 0 14.8-35c0-12.7-1-15.6-12.6-32.5a37.3 37.3 0 0 1-3.5-6c-3.5-11.4 5.7-23.5 14.7-19.2m148 10.8c-1.3 1.3-1.7 4.5-1.1 8.3.6 3.6.7 7.1.3 12-.4 4.3.5 13.9 1.5 16 .5 1.3.5-.8.6-17.9 0-10.6-.1-19.3-.2-19.3s-.7.4-1.2 1m-331.4 8.6c-.2.4-.4 1.1-.4 1.6 0 2.2-3.5 6.6-5 6.3-.7-.1.8-3.6 3.7-8.4l1.9-3.1.1 1.4c0 .7 0 1.7-.3 2.2m65 14.8c2.4 2 6.3 20 4.9 22.3-.6.9-2.2.6-7-1.3a56.5 56.5 0 0 0-20.7-4c-10.8-.4-11-1.6-1.2-8 10.7-6.8 21.5-10.9 24-9m261.2 34c-3.6 1.6-4.6 3.5-7 13-2 7.4-4 13.6-6.2 17.7l-3.8 8.2a62.8 62.8 0 0 1-6.5 12c-5.1 7.6-3.4 10.7 6.1 11.3a191.3 191.3 0 0 1 23.8 3c1 0 0-2.3-1.3-2.9a51.9 51.9 0 0 0-16.2-3c-10.7-1.5-11.2-2.2-7-10 1.3-2.3 2.8-5.3 3.3-6.6l3.8-8.3c3-6.4 5-11.9 6.8-18.6 2.5-8.9 4.8-10.8 8.8-7.2l1.8 1.6.1-3.1c.1-2.8 0-3.3-.8-4.3-2.8-3.7-3.3-4-5.7-2.8m-238 17.2c1.6.7 3.8 2.5 16.3 13.7l7.8 6.7c2.7 2.2 9.3 9 9.3 9.6 0 .3 1.2 3 2.6 5.8 3.6 7.2 3.4 7.8-2.7 10.6-4.8 2.3-24.8-3.5-36-10.4-7-4.3-7.5-5.9-4.9-13 2.4-6.6 3-9.6 3.4-16 .6-7.9 1-8.5 4.2-7M42.4 278c2.8 2 4.3 9.2 1.9 9.2-1.4 0-5.8-4.8-7-7.4-1-2.8 2.1-4 5.2-1.8M0 290c0 1.6.1 2 1 2.3 4.4 2 17.4 12.1 26 20.1l5.6 5.2c1.2 1 4.3 4.3 7 7.5 4.8 5.7 8.4 9.1 17.6 17.2 5.7 5 6.5 6 11.2 13.8 3.1 5.4 5.5 8.9 8.4 12.8 7.9 10.4 8.7 15.1 4 21.5a19.3 19.3 0 0 0-3 6.3c-.2.7-.5 1.5-.8 1.7-1.3 1-.7 1.6 1.6 1.6 2.5 0 2.1.4 8-7 3.8-4.8 5-6.9 5-9 0-3-3.6-9.9-8.2-15.6l-5.3-7.4c-8.2-12-9.4-13.7-11.3-15.9-2-2.3-7-6.6-13-11.5A67 67 0 0 1 42 321.8c-8.3-10.4-30.3-29.1-37.5-31.8-1.3-.5-2.5-1-2.7-1.2-1.4-1-1.8-.8-1.8 1.1m366 13.2c-9.2.6-16 2-22.1 4.5a223 223 0 0 1-9.3 3.5 74.6 74.6 0 0 0-32.5 20.7l-7.2 8.2a102.4 102.4 0 0 0-24.5 52c-.7 6.9-.6 7.8 1.3 8h1.4l.5-3.5a93.8 93.8 0 0 1 6.3-23.7 95.2 95.2 0 0 1 17.5-29.2c2-2 5-5.5 6.8-7.6 8.8-10.2 17.6-15.7 36.6-22.6a74 74 0 0 1 35-6c8 .2 10.3.5 19.1 2.4l5 1 .1-2v-2l-5.2-1.2c-8.4-2-21-3.1-28.8-2.5M0 310.5c0 1.4 0 1.4 3.1 2.5a52 52 0 0 1 24.7 18.6 46 46 0 0 1 9.6 27.6 54 54 0 0 0 1.8 9.8c3.2 10.5 1.6 17.4-5.5 23.5-5.8 5.1-11.7 6.7-17.9 4.8a109 109 0 0 1-13.7-5.7L0 390.4v4.3l5.2 2.7 5.2 2.6h20.5l2-1.5 3.3-2.5c8.3-5.8 10.8-15.7 7.8-30.2a223 223 0 0 1-1.8-9.8 42.5 42.5 0 0 0-7-19.9c-9-15.3-19.2-24-31.1-26.3-4.1-.8-4.1-.8-4.1.7m0 34.3v2.6l.7-1.3c.6-1.2.6-1.4 0-2.6l-.6-1.3v2.6m365.8 17c-19.1 2.4-31.8 8.8-40.4 20.3-5.4 7-8.6 17.9-5.4 17.9 1.3 0 1.4 0 2.5-3.5 8.4-26 40-38 76.3-28.7 2.6.7 1.3-3-1.3-3.9a93 93 0 0 0-31.7-2.1m-.6 28.4c-6.6 1.2-9.3 2.8-14.5 8.7l-1 1.1h2.8c2.7 0 3 0 4.2-1.3 6.7-6.5 22.2-6.6 29.8 0 1.9 1.6 7.9 2.1 7 .6a27.5 27.5 0 0 0-11.1-8.5 49 49 0 0 0-17.2-.6"/>
  </g>
</svg>
