<svg xmlns="http://www.w3.org/2000/svg" fill="none" viewBox="0 0 300 300">
    <ellipse cx="150" cy="150" rx="150" ry="150"
        transform="matrix(1.000000, 0.000000, 0.000000, 1.000000, 0.000000, 0.000000)"
        style="fill: rgb(212, 80, 132); fill-opacity: 1;" />
    <path
        d="M191.500,74.000C233.721,74.000,268.000,108.279,268.000,150.500C268.000,192.721,233.721,227.000,191.500,227.000C149.279,227.000,115.000,192.721,115.000,150.500C115.000,108.279,149.279,74.000,191.500,74.000ZM191.500,89.000C157.557,89.000,130.000,116.557,130.000,150.500C130.000,184.443,157.557,212.000,191.500,212.000C225.443,212.000,253.000,184.443,253.000,150.500C253.000,116.557,225.443,89.000,191.500,89.000Z"
        style="fill: rgb(230, 250, 254); fill-opacity: 1;" />
    <path
        d="M108.500,74.000C150.721,74.000,185.000,108.279,185.000,150.500C185.000,192.721,150.721,227.000,108.500,227.000C66.279,227.000,32.000,192.721,32.000,150.500C32.000,108.279,66.279,74.000,108.500,74.000ZM108.500,89.000C74.557,89.000,47.000,116.557,47.000,150.500C47.000,184.443,74.557,212.000,108.500,212.000C142.443,212.000,170.000,184.443,170.000,150.500C170.000,116.557,142.443,89.000,108.500,89.000Z"
        style="fill: rgb(230, 250, 254); fill-opacity: 1;" />
</svg>
